<svg width="30" height="30" viewBox="0 0 30 30" fill="none" xmlns="http://www.w3.org/2000/svg">
<rect y="-0.000732422" width="30" height="30" fill="white" fill-opacity="0.01"/>
<mask id="mask0" mask-type="alpha" maskUnits="userSpaceOnUse" x="1" y="1" width="28" height="28">
<path fill-rule="evenodd" clip-rule="evenodd" d="M15.0005 28.7493C7.40657 28.7493 1.25049 22.5932 1.25049 14.9993C1.25049 7.40538 7.40657 1.2493 15.0005 1.2493C22.5944 1.2493 28.7505 7.40538 28.7505 14.9993C28.7505 22.5932 22.5944 28.7493 15.0005 28.7493ZM14.9991 26.2492C21.2123 26.2492 26.2491 21.2124 26.2491 14.9992C26.2491 8.78595 21.2123 3.74916 14.9991 3.74916C8.7859 3.74916 3.7491 8.78595 3.7491 14.9992C3.7491 21.2124 8.7859 26.2492 14.9991 26.2492ZM8.74948 16.2492H16.9817L14.1156 19.1153L15.8834 20.8831L21.7672 14.9992L15.8834 9.11531L14.1156 10.8831L16.9817 13.7492H8.74948V16.2492Z" fill="white"/>
</mask>
<g mask="url(#mask0)">
<rect y="-0.000732422" width="30" height="30" fill="white"/>
</g>
</svg>
