<svg width="30" height="30" viewBox="0 0 30 30" fill="none" xmlns="http://www.w3.org/2000/svg">
<rect width="30" height="30" fill="white" fill-opacity="0.01"/>
<mask id="mask0" mask-type="alpha" maskUnits="userSpaceOnUse" x="1" y="1" width="28" height="28">
<path fill-rule="evenodd" clip-rule="evenodd" d="M15.0006 28.75C7.40663 28.75 1.25055 22.5939 1.25055 15C1.25055 7.40609 7.40663 1.25 15.0006 1.25C22.5945 1.25 28.7506 7.40609 28.7506 15C28.7506 22.5939 22.5945 28.75 15.0006 28.75ZM14.9992 26.2499C21.2124 26.2499 26.2492 21.2131 26.2492 14.9999C26.2492 8.78666 21.2124 3.74986 14.9992 3.74986C8.78596 3.74986 3.74916 8.78666 3.74916 14.9999C3.74916 21.2131 8.78596 26.2499 14.9992 26.2499ZM8.74954 16.2499H16.9818L14.1157 19.116L15.8834 20.8838L21.7673 14.9999L15.8834 9.11601L14.1157 10.8838L16.9818 13.7499H8.74954V16.2499Z" fill="white"/>
</mask>
<g mask="url(#mask0)">
<rect width="30" height="30" fill="#006100"/>
</g>
</svg>
