<svg width="30" height="30" viewBox="0 0 30 30" fill="none" xmlns="http://www.w3.org/2000/svg">
<path d="M19.2525 26.2498V17.5423H22.1688L22.605 14.1573H19.2525V11.9973C19.2525 11.0173 19.525 10.3485 20.93 10.3485H22.7225V7.32101C21.8547 7.22894 20.9826 7.18429 20.11 7.18726C17.5262 7.18726 15.7575 8.76476 15.7575 11.6623V14.1573H12.835V17.5423H15.7575V26.2498H5C4.66848 26.2498 4.35054 26.1181 4.11612 25.8836C3.8817 25.6492 3.75 25.3313 3.75 24.9998V4.99976C3.75 4.66824 3.8817 4.35029 4.11612 4.11587C4.35054 3.88145 4.66848 3.74976 5 3.74976H25C25.3315 3.74976 25.6495 3.88145 25.8839 4.11587C26.1183 4.35029 26.25 4.66824 26.25 4.99976V24.9998C26.25 25.3313 26.1183 25.6492 25.8839 25.8836C25.6495 26.1181 25.3315 26.2498 25 26.2498H19.2525Z" fill="white"/>
</svg>
