<svg width="231" height="265" viewBox="0 0 231 265" fill="none" xmlns="http://www.w3.org/2000/svg">
<circle cx="115.471" cy="108.515" r="70.8087" fill="#EB2126"/>
<g filter="url(#filter0_d)">
<circle cx="115.471" cy="108.515" r="50.8157" fill="white"/>
</g>
<circle cx="114.638" cy="200.15" r="9.99652" fill="#EB2126"/>
<circle cx="114.222" cy="226.39" r="7.08087" fill="#EB2126"/>
<path d="M36.1979 259.301V248.098H42.4869V249.41H37.651V253.41H42.4869V254.723H37.651V259.301H36.1979ZM43.9635 255.668C43.9635 255.158 44.0546 254.671 44.2369 254.207C44.4192 253.744 44.6718 253.335 44.9947 252.981C45.3229 252.626 45.7161 252.35 46.1744 252.152C46.6328 251.949 47.138 251.848 47.6901 251.848C48.2213 251.848 48.7187 251.975 49.1822 252.231C49.651 252.486 50.0026 252.837 50.2369 253.285V252.035H51.6119V259.301H50.2369V258.035C50.0026 258.483 49.6536 258.837 49.1901 259.098C48.7265 259.353 48.2265 259.481 47.6901 259.481C47.138 259.481 46.6328 259.379 46.1744 259.176C45.7161 258.973 45.3229 258.697 44.9947 258.348C44.6718 257.994 44.4192 257.587 44.2369 257.129C44.0546 256.665 43.9635 256.178 43.9635 255.668ZM45.3385 255.668C45.3385 256.022 45.3958 256.353 45.5104 256.66C45.6302 256.968 45.7942 257.238 46.0026 257.473C46.2109 257.702 46.4635 257.887 46.7604 258.027C47.0572 258.163 47.3932 258.231 47.7682 258.231C48.1432 258.231 48.4817 258.163 48.7838 258.027C49.0911 257.887 49.3515 257.702 49.5651 257.473C49.7786 257.238 49.9427 256.968 50.0572 256.66C50.177 256.353 50.2369 256.022 50.2369 255.668C50.2369 255.314 50.177 254.983 50.0572 254.676C49.9427 254.369 49.7786 254.098 49.5651 253.863C49.3515 253.629 49.0911 253.441 48.7838 253.301C48.4817 253.16 48.1432 253.09 47.7682 253.09C47.3932 253.09 47.0572 253.16 46.7604 253.301C46.4635 253.441 46.2109 253.629 46.0026 253.863C45.7942 254.098 45.6302 254.371 45.5104 254.684C45.3958 254.991 45.3385 255.319 45.3385 255.668ZM54.1041 259.301V252.035H55.4947V253.457C55.6875 252.999 56.0104 252.629 56.4635 252.348C56.9166 252.066 57.3984 251.926 57.9088 251.926C58.1848 251.926 58.414 251.962 58.5963 252.035V253.316C58.4453 253.285 58.3255 253.264 58.2369 253.254C58.1484 253.244 58.039 253.238 57.9088 253.238C57.0963 253.238 56.4895 253.501 56.0885 254.027C55.6927 254.548 55.4947 255.244 55.4947 256.113V259.301H54.1041ZM59.9479 259.301V252.035H61.3385V253.332C61.4791 252.926 61.7343 252.577 62.1041 252.285C62.4791 251.994 62.9375 251.848 63.4791 251.848C64.151 251.848 64.6744 251.988 65.0494 252.27C65.4244 252.551 65.6796 252.926 65.8151 253.395C65.888 253.191 66 252.996 66.151 252.809C66.302 252.616 66.4765 252.449 66.6744 252.309C66.8723 252.168 67.0963 252.056 67.3463 251.973C67.5963 251.889 67.8645 251.848 68.151 251.848C68.6302 251.848 69.0364 251.923 69.3697 252.074C69.7031 252.22 69.9687 252.421 70.1666 252.676C70.3697 252.931 70.5156 253.236 70.6041 253.59C70.6979 253.939 70.7447 254.311 70.7447 254.707V259.301H69.3541V255.121C69.3541 254.449 69.2239 253.941 68.9635 253.598C68.7031 253.249 68.3203 253.074 67.8151 253.074C67.2734 253.074 66.8411 253.283 66.5182 253.699C66.2005 254.116 66.0416 254.751 66.0416 255.606V259.301H64.651V255.207C64.651 254.473 64.5208 253.934 64.2604 253.59C64 253.246 63.6223 253.074 63.1276 253.074C62.5963 253.074 62.164 253.283 61.8307 253.699C61.5026 254.116 61.3385 254.751 61.3385 255.606V259.301H59.9479ZM72.5729 255.668C72.5729 255.126 72.6536 254.621 72.8151 254.152C72.9765 253.678 73.2083 253.272 73.5104 252.934C73.8125 252.59 74.1848 252.324 74.6276 252.137C75.0703 251.944 75.5807 251.848 76.1588 251.848C76.6276 251.848 77.0677 251.931 77.4791 252.098C77.8906 252.259 78.2473 252.491 78.5494 252.793C78.8515 253.09 79.0885 253.439 79.2604 253.84C79.4322 254.236 79.5182 254.663 79.5182 255.121C79.5182 255.225 79.5156 255.353 79.5104 255.504C79.5052 255.655 79.4869 255.832 79.4557 256.035H73.9479C73.9583 256.343 74.0078 256.634 74.0963 256.91C74.1901 257.181 74.3255 257.421 74.5026 257.629C74.6796 257.837 74.9062 258.004 75.1822 258.129C75.4583 258.249 75.7994 258.309 76.2057 258.309C76.7473 258.309 77.1588 258.194 77.4401 257.965C77.7265 257.736 77.927 257.468 78.0416 257.16H79.4557C79.3932 257.468 79.276 257.759 79.1041 258.035C78.9322 258.311 78.7057 258.556 78.4244 258.77C78.1484 258.983 77.8229 259.155 77.4479 259.285C77.0781 259.415 76.664 259.481 76.2057 259.481C75.5963 259.481 75.0625 259.379 74.6041 259.176C74.1458 258.973 73.7656 258.702 73.4635 258.363C73.1666 258.02 72.9427 257.616 72.7916 257.152C72.6458 256.684 72.5729 256.189 72.5729 255.668ZM73.9635 254.981H78.1744C78.1744 254.34 77.9791 253.837 77.5885 253.473C77.2031 253.103 76.7161 252.918 76.1276 252.918C75.4973 252.918 74.9843 253.098 74.5885 253.457C74.1927 253.811 73.9843 254.319 73.9635 254.981ZM81.5416 259.301V252.035H82.9322V253.457C83.125 252.999 83.4479 252.629 83.901 252.348C84.3541 252.066 84.8359 251.926 85.3463 251.926C85.6223 251.926 85.8515 251.962 86.0338 252.035V253.316C85.8828 253.285 85.763 253.264 85.6744 253.254C85.5859 253.244 85.4765 253.238 85.3463 253.238C84.5338 253.238 83.927 253.501 83.526 254.027C83.1302 254.548 82.9322 255.244 82.9322 256.113V259.301H81.5416ZM86.6197 256.856H87.9791C87.9791 257.408 88.1406 257.798 88.4635 258.027C88.7916 258.257 89.2005 258.371 89.6901 258.371C90.138 258.371 90.4921 258.29 90.7526 258.129C91.0182 257.962 91.151 257.697 91.151 257.332C91.151 257.129 91.0963 256.968 90.9869 256.848C90.8828 256.723 90.7317 256.613 90.5338 256.52C90.3359 256.421 90.0911 256.332 89.7994 256.254C89.513 256.171 89.1901 256.066 88.8307 255.941C88.5546 255.858 88.2942 255.77 88.0494 255.676C87.8098 255.577 87.6015 255.452 87.4244 255.301C87.2526 255.15 87.1145 254.968 87.0104 254.754C86.9114 254.54 86.8619 254.27 86.8619 253.941C86.8619 253.598 86.9296 253.296 87.0651 253.035C87.2057 252.775 87.3984 252.556 87.6432 252.379C87.888 252.202 88.1744 252.069 88.5026 251.981C88.8359 251.892 89.1901 251.848 89.5651 251.848C89.9609 251.848 90.3281 251.908 90.6666 252.027C91.0104 252.142 91.3072 252.309 91.5572 252.527C91.8072 252.746 92.0026 253.004 92.1432 253.301C92.289 253.598 92.3619 253.928 92.3619 254.293H91.0182C91.0182 253.866 90.8932 253.538 90.6432 253.309C90.3932 253.079 90.0286 252.965 89.5494 252.965C89.164 252.965 88.8437 253.051 88.5885 253.223C88.3333 253.395 88.2057 253.645 88.2057 253.973C88.2057 254.155 88.25 254.306 88.3385 254.426C88.427 254.54 88.5625 254.642 88.7447 254.731C88.927 254.814 89.1458 254.897 89.401 254.981C89.6562 255.059 89.9557 255.15 90.2994 255.254C90.5755 255.337 90.8437 255.428 91.1041 255.527C91.3697 255.621 91.6015 255.744 91.7994 255.895C92.0026 256.04 92.164 256.225 92.2838 256.449C92.4088 256.673 92.4713 256.957 92.4713 257.301C92.4713 257.665 92.3984 257.983 92.2526 258.254C92.1119 258.525 91.914 258.751 91.6588 258.934C91.4036 259.116 91.1015 259.251 90.7526 259.34C90.4088 259.434 90.0338 259.481 89.6276 259.481C89.2213 259.481 88.8359 259.426 88.4713 259.316C88.1119 259.212 87.7942 259.051 87.5182 258.832C87.2473 258.613 87.0286 258.34 86.8619 258.012C86.7005 257.678 86.6197 257.293 86.6197 256.856ZM93.2916 259.895L99.1197 246.356L100.385 246.902L94.5572 260.434L93.2916 259.895ZM100.838 253.684C100.838 252.928 100.969 252.199 101.229 251.496C101.49 250.788 101.865 250.165 102.354 249.629C102.849 249.093 103.445 248.663 104.143 248.34C104.841 248.012 105.628 247.848 106.503 247.848C107.315 247.848 108.034 247.957 108.659 248.176C109.289 248.395 109.831 248.691 110.284 249.066C110.737 249.436 111.102 249.876 111.378 250.387C111.659 250.892 111.852 251.436 111.956 252.02H110.424C110.341 251.613 110.198 251.236 109.995 250.887C109.792 250.533 109.529 250.228 109.206 249.973C108.888 249.718 108.518 249.52 108.096 249.379C107.674 249.233 107.2 249.16 106.674 249.16C105.982 249.16 105.367 249.285 104.831 249.535C104.294 249.785 103.841 250.121 103.471 250.543C103.102 250.965 102.818 251.449 102.62 251.996C102.422 252.538 102.323 253.1 102.323 253.684C102.323 254.303 102.424 254.889 102.628 255.441C102.831 255.988 103.128 256.47 103.518 256.887C103.909 257.303 104.385 257.634 104.948 257.879C105.516 258.124 106.161 258.246 106.885 258.246C107.271 258.246 107.646 258.189 108.01 258.074C108.38 257.954 108.719 257.788 109.026 257.574C109.338 257.361 109.609 257.108 109.838 256.816C110.068 256.52 110.242 256.197 110.362 255.848H111.956C111.815 256.369 111.588 256.856 111.276 257.309C110.963 257.762 110.581 258.155 110.128 258.488C109.674 258.816 109.159 259.077 108.581 259.27C108.008 259.462 107.385 259.559 106.713 259.559C105.797 259.559 104.974 259.4 104.245 259.082C103.521 258.759 102.904 258.332 102.393 257.801C101.888 257.264 101.503 256.642 101.237 255.934C100.971 255.225 100.838 254.475 100.838 253.684ZM113.245 255.668C113.245 255.158 113.336 254.671 113.518 254.207C113.7 253.744 113.956 253.335 114.284 252.981C114.617 252.626 115.018 252.35 115.487 252.152C115.956 251.949 116.477 251.848 117.049 251.848C117.638 251.848 118.167 251.949 118.635 252.152C119.104 252.35 119.505 252.626 119.838 252.981C120.177 253.335 120.437 253.744 120.62 254.207C120.802 254.671 120.893 255.158 120.893 255.668C120.893 256.178 120.802 256.665 120.62 257.129C120.437 257.587 120.177 257.994 119.838 258.348C119.505 258.697 119.104 258.973 118.635 259.176C118.167 259.379 117.638 259.481 117.049 259.481C116.471 259.481 115.948 259.379 115.479 259.176C115.016 258.973 114.617 258.697 114.284 258.348C113.956 257.994 113.7 257.587 113.518 257.129C113.336 256.665 113.245 256.178 113.245 255.668ZM114.62 255.668C114.62 256.022 114.677 256.353 114.792 256.66C114.911 256.968 115.075 257.238 115.284 257.473C115.492 257.702 115.745 257.887 116.042 258.027C116.338 258.163 116.674 258.231 117.049 258.231C117.424 258.231 117.763 258.163 118.065 258.027C118.372 257.887 118.633 257.702 118.846 257.473C119.06 257.238 119.224 256.968 119.338 256.66C119.458 256.353 119.518 256.022 119.518 255.668C119.518 255.314 119.458 254.983 119.338 254.676C119.224 254.369 119.06 254.098 118.846 253.863C118.633 253.629 118.372 253.441 118.065 253.301C117.763 253.16 117.424 253.09 117.049 253.09C116.674 253.09 116.338 253.16 116.042 253.301C115.745 253.441 115.492 253.629 115.284 253.863C115.075 254.098 114.911 254.371 114.792 254.684C114.677 254.991 114.62 255.319 114.62 255.668ZM122.198 255.668C122.198 255.158 122.289 254.671 122.471 254.207C122.654 253.744 122.909 253.335 123.237 252.981C123.57 252.626 123.971 252.35 124.44 252.152C124.909 251.949 125.43 251.848 126.003 251.848C126.591 251.848 127.12 251.949 127.588 252.152C128.057 252.35 128.458 252.626 128.792 252.981C129.13 253.335 129.391 253.744 129.573 254.207C129.755 254.671 129.846 255.158 129.846 255.668C129.846 256.178 129.755 256.665 129.573 257.129C129.391 257.587 129.13 257.994 128.792 258.348C128.458 258.697 128.057 258.973 127.588 259.176C127.12 259.379 126.591 259.481 126.003 259.481C125.424 259.481 124.901 259.379 124.432 259.176C123.969 258.973 123.57 258.697 123.237 258.348C122.909 257.994 122.654 257.587 122.471 257.129C122.289 256.665 122.198 256.178 122.198 255.668ZM123.573 255.668C123.573 256.022 123.63 256.353 123.745 256.66C123.865 256.968 124.029 257.238 124.237 257.473C124.445 257.702 124.698 257.887 124.995 258.027C125.292 258.163 125.628 258.231 126.003 258.231C126.378 258.231 126.716 258.163 127.018 258.027C127.325 257.887 127.586 257.702 127.799 257.473C128.013 257.238 128.177 256.968 128.292 256.66C128.411 256.353 128.471 256.022 128.471 255.668C128.471 255.314 128.411 254.983 128.292 254.676C128.177 254.369 128.013 254.098 127.799 253.863C127.586 253.629 127.325 253.441 127.018 253.301C126.716 253.16 126.378 253.09 126.003 253.09C125.628 253.09 125.292 253.16 124.995 253.301C124.698 253.441 124.445 253.629 124.237 253.863C124.029 254.098 123.865 254.371 123.745 254.684C123.63 254.991 123.573 255.319 123.573 255.668ZM131.745 263.238V252.035H133.135V253.285C133.37 252.837 133.716 252.486 134.174 252.231C134.633 251.975 135.13 251.848 135.667 251.848C136.219 251.848 136.727 251.949 137.19 252.152C137.654 252.35 138.047 252.626 138.37 252.981C138.698 253.335 138.953 253.744 139.135 254.207C139.318 254.671 139.409 255.158 139.409 255.668C139.409 256.178 139.318 256.665 139.135 257.129C138.953 257.587 138.698 257.994 138.37 258.348C138.047 258.697 137.654 258.973 137.19 259.176C136.727 259.379 136.219 259.481 135.667 259.481C135.135 259.481 134.638 259.353 134.174 259.098C133.716 258.837 133.37 258.483 133.135 258.035V263.238H131.745ZM133.135 255.668C133.135 256.022 133.193 256.353 133.307 256.66C133.427 256.968 133.594 257.238 133.807 257.473C134.021 257.702 134.279 257.887 134.581 258.027C134.888 258.163 135.227 258.231 135.596 258.231C135.961 258.231 136.292 258.163 136.588 258.027C136.891 257.887 137.146 257.702 137.354 257.473C137.562 257.238 137.724 256.968 137.838 256.66C137.958 256.353 138.018 256.022 138.018 255.668C138.018 255.314 137.958 254.983 137.838 254.676C137.724 254.369 137.562 254.098 137.354 253.863C137.146 253.629 136.891 253.441 136.588 253.301C136.292 253.16 135.961 253.09 135.596 253.09C135.221 253.09 134.883 253.16 134.581 253.301C134.279 253.441 134.021 253.629 133.807 253.863C133.594 254.098 133.427 254.371 133.307 254.684C133.193 254.991 133.135 255.319 133.135 255.668ZM140.76 255.668C140.76 255.126 140.841 254.621 141.003 254.152C141.164 253.678 141.396 253.272 141.698 252.934C142 252.59 142.372 252.324 142.815 252.137C143.258 251.944 143.768 251.848 144.346 251.848C144.815 251.848 145.255 251.931 145.667 252.098C146.078 252.259 146.435 252.491 146.737 252.793C147.039 253.09 147.276 253.439 147.448 253.84C147.62 254.236 147.706 254.663 147.706 255.121C147.706 255.225 147.703 255.353 147.698 255.504C147.693 255.655 147.674 255.832 147.643 256.035H142.135C142.146 256.343 142.195 256.634 142.284 256.91C142.378 257.181 142.513 257.421 142.69 257.629C142.867 257.837 143.094 258.004 143.37 258.129C143.646 258.249 143.987 258.309 144.393 258.309C144.935 258.309 145.346 258.194 145.628 257.965C145.914 257.736 146.115 257.468 146.229 257.16H147.643C147.581 257.468 147.463 257.759 147.292 258.035C147.12 258.311 146.893 258.556 146.612 258.77C146.336 258.983 146.01 259.155 145.635 259.285C145.266 259.415 144.852 259.481 144.393 259.481C143.784 259.481 143.25 259.379 142.792 259.176C142.333 258.973 141.953 258.702 141.651 258.363C141.354 258.02 141.13 257.616 140.979 257.152C140.833 256.684 140.76 256.189 140.76 255.668ZM142.151 254.981H146.362C146.362 254.34 146.167 253.837 145.776 253.473C145.391 253.103 144.904 252.918 144.315 252.918C143.685 252.918 143.172 253.098 142.776 253.457C142.38 253.811 142.172 254.319 142.151 254.981ZM149.729 259.301V252.035H151.12V253.457C151.312 252.999 151.635 252.629 152.088 252.348C152.542 252.066 153.023 251.926 153.534 251.926C153.81 251.926 154.039 251.962 154.221 252.035V253.316C154.07 253.285 153.95 253.264 153.862 253.254C153.773 253.244 153.664 253.238 153.534 253.238C152.721 253.238 152.115 253.501 151.713 254.027C151.318 254.548 151.12 255.244 151.12 256.113V259.301H149.729ZM154.823 255.668C154.823 255.158 154.914 254.671 155.096 254.207C155.279 253.744 155.531 253.335 155.854 252.981C156.182 252.626 156.575 252.35 157.034 252.152C157.492 251.949 157.997 251.848 158.549 251.848C159.081 251.848 159.578 251.975 160.042 252.231C160.51 252.486 160.862 252.837 161.096 253.285V252.035H162.471V259.301H161.096V258.035C160.862 258.483 160.513 258.837 160.049 259.098C159.586 259.353 159.086 259.481 158.549 259.481C157.997 259.481 157.492 259.379 157.034 259.176C156.575 258.973 156.182 258.697 155.854 258.348C155.531 257.994 155.279 257.587 155.096 257.129C154.914 256.665 154.823 256.178 154.823 255.668ZM156.198 255.668C156.198 256.022 156.255 256.353 156.37 256.66C156.49 256.968 156.654 257.238 156.862 257.473C157.07 257.702 157.323 257.887 157.62 258.027C157.917 258.163 158.253 258.231 158.628 258.231C159.003 258.231 159.341 258.163 159.643 258.027C159.95 257.887 160.211 257.702 160.424 257.473C160.638 257.238 160.802 256.968 160.917 256.66C161.036 256.353 161.096 256.022 161.096 255.668C161.096 255.314 161.036 254.983 160.917 254.676C160.802 254.369 160.638 254.098 160.424 253.863C160.211 253.629 159.95 253.441 159.643 253.301C159.341 253.16 159.003 253.09 158.628 253.09C158.253 253.09 157.917 253.16 157.62 253.301C157.323 253.441 157.07 253.629 156.862 253.863C156.654 254.098 156.49 254.371 156.37 254.684C156.255 254.991 156.198 255.319 156.198 255.668ZM164.034 253.207V252.035H165.378V249.59H166.768V252.035H168.659V253.207H166.768V256.551C166.768 256.905 166.797 257.186 166.854 257.395C166.917 257.598 167 257.757 167.104 257.871C167.214 257.981 167.339 258.051 167.479 258.082C167.625 258.113 167.789 258.129 167.971 258.129C168.122 258.129 168.289 258.124 168.471 258.113C168.659 258.103 168.807 258.087 168.917 258.066V259.301C168.776 259.322 168.591 259.343 168.362 259.363C168.133 259.384 167.901 259.395 167.667 259.395C167.443 259.395 167.195 259.374 166.924 259.332C166.659 259.29 166.411 259.186 166.182 259.02C165.953 258.853 165.76 258.6 165.604 258.262C165.453 257.918 165.378 257.449 165.378 256.856V253.207H164.034ZM169.979 249.285C169.979 248.978 170.086 248.712 170.299 248.488C170.513 248.264 170.776 248.152 171.089 248.152C171.396 248.152 171.661 248.264 171.885 248.488C172.109 248.712 172.221 248.978 172.221 249.285C172.221 249.593 172.109 249.853 171.885 250.066C171.661 250.28 171.396 250.387 171.089 250.387C170.781 250.387 170.518 250.28 170.299 250.066C170.086 249.853 169.979 249.593 169.979 249.285ZM170.401 259.301V252.035H171.792V259.301H170.401ZM173.104 252.035H174.612L176.885 257.316L179.182 252.035H180.69L177.362 259.301H176.401L173.104 252.035ZM181.042 255.668C181.042 255.126 181.122 254.621 181.284 254.152C181.445 253.678 181.677 253.272 181.979 252.934C182.281 252.59 182.654 252.324 183.096 252.137C183.539 251.944 184.049 251.848 184.628 251.848C185.096 251.848 185.536 251.931 185.948 252.098C186.359 252.259 186.716 252.491 187.018 252.793C187.32 253.09 187.557 253.439 187.729 253.84C187.901 254.236 187.987 254.663 187.987 255.121C187.987 255.225 187.984 255.353 187.979 255.504C187.974 255.655 187.956 255.832 187.924 256.035H182.417C182.427 256.343 182.477 256.634 182.565 256.91C182.659 257.181 182.794 257.421 182.971 257.629C183.148 257.837 183.375 258.004 183.651 258.129C183.927 258.249 184.268 258.309 184.674 258.309C185.216 258.309 185.628 258.194 185.909 257.965C186.195 257.736 186.396 257.468 186.51 257.16H187.924C187.862 257.468 187.745 257.759 187.573 258.035C187.401 258.311 187.174 258.556 186.893 258.77C186.617 258.983 186.292 259.155 185.917 259.285C185.547 259.415 185.133 259.481 184.674 259.481C184.065 259.481 183.531 259.379 183.073 259.176C182.615 258.973 182.234 258.702 181.932 258.363C181.635 258.02 181.411 257.616 181.26 257.152C181.115 256.684 181.042 256.189 181.042 255.668ZM182.432 254.981H186.643C186.643 254.34 186.448 253.837 186.057 253.473C185.672 253.103 185.185 252.918 184.596 252.918C183.966 252.918 183.453 253.098 183.057 253.457C182.661 253.811 182.453 254.319 182.432 254.981ZM189.401 256.856H190.76C190.76 257.408 190.922 257.798 191.245 258.027C191.573 258.257 191.982 258.371 192.471 258.371C192.919 258.371 193.273 258.29 193.534 258.129C193.799 257.962 193.932 257.697 193.932 257.332C193.932 257.129 193.878 256.968 193.768 256.848C193.664 256.723 193.513 256.613 193.315 256.52C193.117 256.421 192.872 256.332 192.581 256.254C192.294 256.171 191.971 256.066 191.612 255.941C191.336 255.858 191.075 255.77 190.831 255.676C190.591 255.577 190.383 255.452 190.206 255.301C190.034 255.15 189.896 254.968 189.792 254.754C189.693 254.54 189.643 254.27 189.643 253.941C189.643 253.598 189.711 253.296 189.846 253.035C189.987 252.775 190.18 252.556 190.424 252.379C190.669 252.202 190.956 252.069 191.284 251.981C191.617 251.892 191.971 251.848 192.346 251.848C192.742 251.848 193.109 251.908 193.448 252.027C193.792 252.142 194.089 252.309 194.339 252.527C194.589 252.746 194.784 253.004 194.924 253.301C195.07 253.598 195.143 253.928 195.143 254.293H193.799C193.799 253.866 193.674 253.538 193.424 253.309C193.174 253.079 192.81 252.965 192.331 252.965C191.945 252.965 191.625 253.051 191.37 253.223C191.115 253.395 190.987 253.645 190.987 253.973C190.987 254.155 191.031 254.306 191.12 254.426C191.208 254.54 191.344 254.642 191.526 254.731C191.708 254.814 191.927 254.897 192.182 254.981C192.437 255.059 192.737 255.15 193.081 255.254C193.357 255.337 193.625 255.428 193.885 255.527C194.151 255.621 194.383 255.744 194.581 255.895C194.784 256.04 194.945 256.225 195.065 256.449C195.19 256.673 195.253 256.957 195.253 257.301C195.253 257.665 195.18 257.983 195.034 258.254C194.893 258.525 194.695 258.751 194.44 258.934C194.185 259.116 193.883 259.251 193.534 259.34C193.19 259.434 192.815 259.481 192.409 259.481C192.003 259.481 191.617 259.426 191.253 259.316C190.893 259.212 190.575 259.051 190.299 258.832C190.029 258.613 189.81 258.34 189.643 258.012C189.482 257.678 189.401 257.293 189.401 256.856Z" fill="#333333"/>
<g clip-path="url(#clip0)">
<path d="M122.624 94.8536C121.732 95.1466 120.836 95.4216 119.932 95.6645C114.818 97.0541 109.33 96.9612 104.172 95.8396C103.534 95.7038 102.892 95.5395 102.25 95.368C102.176 96.0323 102.138 96.7001 102.137 97.3685C102.137 104.841 106.762 110.9 112.471 110.9C118.18 110.9 122.802 104.827 122.802 97.3685C122.802 96.5271 122.742 95.6868 122.624 94.8536Z" fill="#605A5A"/>
<path d="M117.966 110.9L112.446 113.861L106.936 110.9C106.823 111.648 106.609 112.379 106.301 113.072C106.144 113.442 105.894 113.768 105.576 114.018L112.468 117.851L119.131 113.84C118.917 113.617 118.749 113.356 118.634 113.072C118.315 112.38 118.09 111.65 117.966 110.9Z" fill="#605A5A"/>
<path d="M96.606 92.9354C99.0725 93.5748 101.659 94.1678 104.18 94.6715C109.337 95.7003 114.825 95.786 119.94 94.5107C121.278 94.1749 122.617 93.8356 123.93 93.4391C125.214 93.0696 126.474 92.6223 127.702 92.0995C128.873 91.5672 130.176 91.1886 131.209 90.3956C131.761 89.9705 132.221 89.3239 132.022 88.6095C131.518 86.7341 127.865 87.0663 126.291 87.0663C125.09 87.0663 123.632 87.0413 122.664 86.3268C121.235 85.2838 121.416 82.7297 120.611 81.2722C119.94 80.097 119.08 78.8824 117.52 78.8217C115.816 78.7431 114.354 80.0255 112.656 79.9541C111.017 79.8719 109.889 78.5538 108.206 78.5252C107.474 78.4988 106.749 78.6818 106.12 79.052C105.492 79.4222 104.985 79.9638 104.662 80.6114C103.276 83.3119 103.356 84.9551 102.098 85.9411C107.799 89.156 115.768 87.57 115.768 87.57C108.028 90.4634 102.257 87.6914 100.534 86.6662C100.17 86.7672 99.801 86.8483 99.4279 86.9091C97.3532 87.2663 93.6244 86.9841 92.13 88.5845C91.9191 88.7595 91.7702 88.9962 91.705 89.2602C91.6397 89.5241 91.6616 89.8017 91.7673 90.0526C92.5544 91.803 94.894 92.496 96.606 92.9354Z" fill="#605A5A"/>
<path d="M121.285 127.793V126.164H123.059V115.705H123.088C121.829 115.24 120.937 114.904 120.295 114.594L112.489 119.291L104.31 114.733C103.552 115.09 102.497 115.447 101.002 116.008V126.164H102.776V127.793H121.285Z" fill="#605A5A"/>
<path d="M97.0521 136.005V126.164H98.8258V116.855C96.5705 117.81 94.3725 118.892 92.2425 120.095C89.0034 122.781 90.1931 136.005 90.1931 136.005H97.0521Z" fill="#605A5A"/>
<path d="M132.693 120.095C130.289 118.74 127.798 117.54 125.235 116.505V126.15H127.009V135.991H134.753C134.753 135.991 135.943 122.781 132.693 120.095Z" fill="#605A5A"/>
<path d="M99.2067 128.489C99.2067 128.631 99.2498 128.77 99.3303 128.888C99.4108 129.006 99.5252 129.097 99.6588 129.151C99.7925 129.204 99.9392 129.217 100.08 129.188C100.222 129.159 100.351 129.09 100.452 128.988C100.552 128.886 100.62 128.757 100.646 128.617C100.672 128.478 100.655 128.334 100.597 128.203C100.539 128.073 100.443 127.963 100.322 127.887C100.2 127.81 100.058 127.771 99.914 127.775C99.7247 127.78 99.5448 127.857 99.4127 127.99C99.2805 128.124 99.2066 128.303 99.2067 128.489Z" fill="#605A5A"/>
<path d="M123.44 128.489C123.44 128.631 123.482 128.769 123.562 128.886C123.642 129.004 123.755 129.095 123.888 129.149C124.02 129.203 124.166 129.218 124.307 129.19C124.448 129.162 124.577 129.094 124.678 128.995C124.78 128.895 124.849 128.767 124.877 128.629C124.905 128.49 124.89 128.346 124.836 128.216C124.781 128.085 124.688 127.974 124.568 127.895C124.449 127.817 124.309 127.775 124.165 127.775C124.069 127.772 123.974 127.789 123.885 127.824C123.796 127.859 123.715 127.912 123.647 127.979C123.579 128.046 123.526 128.125 123.49 128.213C123.454 128.301 123.437 128.395 123.44 128.489Z" fill="#605A5A"/>
</g>
<path d="M147.633 104.621C147.633 95.4422 143.67 88 138.816 88C133.963 88 130 95.4422 130 104.621C130 105.206 130.015 105.781 130.049 106.351H137.332V135.483C137.332 135.678 137.37 135.871 137.445 136.051C137.519 136.231 137.629 136.394 137.767 136.532C137.904 136.67 138.068 136.779 138.248 136.854C138.428 136.928 138.621 136.966 138.816 136.966C139.011 136.966 139.204 136.928 139.384 136.854C139.565 136.779 139.728 136.67 139.866 136.532C140.004 136.394 140.113 136.231 140.188 136.051C140.263 135.871 140.301 135.678 140.301 135.483V106.351H147.584C147.614 105.781 147.633 105.206 147.633 104.621ZM138.816 104.8C138.597 104.8 138.382 104.735 138.2 104.614C138.017 104.492 137.875 104.319 137.791 104.116C137.707 103.913 137.685 103.69 137.728 103.475C137.771 103.26 137.876 103.063 138.032 102.907C138.187 102.752 138.385 102.647 138.6 102.604C138.815 102.561 139.038 102.583 139.241 102.667C139.444 102.751 139.617 102.893 139.739 103.076C139.861 103.258 139.926 103.472 139.926 103.692C139.926 103.837 139.897 103.981 139.841 104.116C139.786 104.25 139.704 104.373 139.601 104.476C139.498 104.579 139.376 104.66 139.241 104.716C139.106 104.772 138.962 104.8 138.816 104.8Z" fill="#605A5A"/>
<defs>
<filter id="filter0_d" x="0.65564" y="0.699097" width="229.631" height="229.631" filterUnits="userSpaceOnUse" color-interpolation-filters="sRGB">
<feFlood flood-opacity="0" result="BackgroundImageFix"/>
<feColorMatrix in="SourceAlpha" type="matrix" values="0 0 0 0 0 0 0 0 0 0 0 0 0 0 0 0 0 0 127 0"/>
<feOffset dy="7"/>
<feGaussianBlur stdDeviation="32"/>
<feColorMatrix type="matrix" values="0 0 0 0 0 0 0 0 0 0 0 0 0 0 0 0 0 0 0.07 0"/>
<feBlend mode="normal" in2="BackgroundImageFix" result="effect1_dropShadow"/>
<feBlend mode="normal" in="SourceGraphic" in2="effect1_dropShadow" result="shape"/>
</filter>
<clipPath id="clip0">
<rect width="44.9843" height="57.48" fill="white" transform="translate(89.9791 78.5252)"/>
</clipPath>
</defs>
</svg>
