<svg width="30" height="30" viewBox="0 0 30 30" fill="none" xmlns="http://www.w3.org/2000/svg">
<path d="M15 2.49976C18.3962 2.49976 18.82 2.51226 20.1525 2.57476C21.4837 2.63726 22.39 2.84601 23.1875 3.15601C24.0125 3.47351 24.7075 3.90351 25.4025 4.59726C26.0381 5.22213 26.5299 5.97799 26.8438 6.81226C27.1525 7.60851 27.3625 8.51601 27.425 9.84726C27.4838 11.1798 27.5 11.6035 27.5 14.9998C27.5 18.396 27.4875 18.8198 27.425 20.1523C27.3625 21.4835 27.1525 22.3898 26.8438 23.1873C26.5308 24.022 26.0389 24.778 25.4025 25.4023C24.7775 26.0377 24.0216 26.5294 23.1875 26.8435C22.3912 27.1523 21.4837 27.3623 20.1525 27.4248C18.82 27.4835 18.3962 27.4998 15 27.4998C11.6038 27.4998 11.18 27.4873 9.8475 27.4248C8.51625 27.3623 7.61 27.1523 6.8125 26.8435C5.97791 26.5303 5.22191 26.0384 4.5975 25.4023C3.96176 24.7775 3.46991 24.0216 3.15625 23.1873C2.84625 22.391 2.6375 21.4835 2.575 20.1523C2.51625 18.8198 2.5 18.396 2.5 14.9998C2.5 11.6035 2.5125 11.1798 2.575 9.84726C2.6375 8.51476 2.84625 7.60976 3.15625 6.81226C3.46905 5.97748 3.961 5.22141 4.5975 4.59726C5.22209 3.96129 5.97804 3.46942 6.8125 3.15601C7.61 2.84601 8.515 2.63726 9.8475 2.57476C11.18 2.51601 11.6038 2.49976 15 2.49976ZM15 8.74976C13.3424 8.74976 11.7527 9.40824 10.5806 10.5803C9.40848 11.7524 8.75 13.3422 8.75 14.9998C8.75 16.6574 9.40848 18.2471 10.5806 19.4192C11.7527 20.5913 13.3424 21.2498 15 21.2498C16.6576 21.2498 18.2473 20.5913 19.4194 19.4192C20.5915 18.2471 21.25 16.6574 21.25 14.9998C21.25 13.3422 20.5915 11.7524 19.4194 10.5803C18.2473 9.40824 16.6576 8.74976 15 8.74976ZM23.125 8.43726C23.125 8.02286 22.9604 7.62543 22.6674 7.3324C22.3743 7.03938 21.9769 6.87476 21.5625 6.87476C21.1481 6.87476 20.7507 7.03938 20.4576 7.3324C20.1646 7.62543 20 8.02286 20 8.43726C20 8.85166 20.1646 9.24908 20.4576 9.54211C20.7507 9.83514 21.1481 9.99976 21.5625 9.99976C21.9769 9.99976 22.3743 9.83514 22.6674 9.54211C22.9604 9.24908 23.125 8.85166 23.125 8.43726ZM15 11.2498C15.9946 11.2498 16.9484 11.6448 17.6517 12.3481C18.3549 13.0514 18.75 14.0052 18.75 14.9998C18.75 15.9943 18.3549 16.9481 17.6517 17.6514C16.9484 18.3547 15.9946 18.7498 15 18.7498C14.0054 18.7498 13.0516 18.3547 12.3483 17.6514C11.6451 16.9481 11.25 15.9943 11.25 14.9998C11.25 14.0052 11.6451 13.0514 12.3483 12.3481C13.0516 11.6448 14.0054 11.2498 15 11.2498Z" fill="white"/>
</svg>
