<svg width="30" height="30" viewBox="0 0 30 30" fill="none" xmlns="http://www.w3.org/2000/svg">
<path d="M22.9187 22.9235H19.5875V17.7023C19.5875 16.4573 19.5625 14.8548 17.85 14.8548C16.1137 14.8548 15.8488 16.2098 15.8488 17.611V22.9235H12.5162V12.1873H15.7162V13.6498H15.76C16.2075 12.8073 17.295 11.916 18.92 11.916C22.295 11.916 22.92 14.1385 22.92 17.0298V22.9235H22.9187ZM8.75375 10.7185C8.49944 10.7188 8.24757 10.669 8.01258 10.5718C7.77758 10.4746 7.56408 10.3319 7.38432 10.1521C7.20456 9.97217 7.06207 9.75858 6.96501 9.52352C6.86796 9.28846 6.81826 9.03656 6.81875 8.78226C6.819 8.39955 6.93272 8.02551 7.14555 7.70744C7.35838 7.38937 7.66074 7.14155 8.01441 6.99532C8.36808 6.84909 8.75717 6.81103 9.13248 6.88593C9.50778 6.96084 9.85244 7.14535 10.1229 7.41614C10.3933 7.68693 10.5774 8.03183 10.6518 8.40723C10.7262 8.78263 10.6877 9.17167 10.541 9.52515C10.3943 9.87863 10.1461 10.1807 9.82774 10.3931C9.50939 10.6055 9.13521 10.7188 8.7525 10.7185H8.75375ZM10.4237 22.9235H7.0825V12.1873H10.425V22.9235H10.4237ZM24.5875 3.74976H5.41125C4.49125 3.74976 3.75 4.47476 3.75 5.37101V24.6285C3.75 25.5248 4.4925 26.2498 5.41 26.2498H24.5825C25.5 26.2498 26.25 25.5248 26.25 24.6285V5.37101C26.25 4.47476 25.5 3.74976 24.5825 3.74976H24.5863H24.5875Z" fill="white"/>
</svg>
