<svg width="25" height="24" viewBox="0 0 25 24" fill="none" xmlns="http://www.w3.org/2000/svg">
<rect y="-0.000244141" width="25" height="24" rx="3" fill="white"/>
<path d="M21.4683 6.71309C20.8321 6.9945 20.1574 7.17932 19.4666 7.26142C20.1947 6.82595 20.7397 6.1406 20.9999 5.33309C20.3166 5.73976 19.5674 6.02476 18.7866 6.17892C18.2621 5.61774 17.5669 5.24556 16.809 5.12024C16.0512 4.99493 15.2732 5.1235 14.596 5.48597C13.9187 5.84843 13.3802 6.42449 13.0642 7.12458C12.7481 7.82467 12.6722 8.60957 12.8483 9.35726C11.4625 9.2878 10.1069 8.92769 8.86933 8.30031C7.63179 7.67293 6.54003 6.7923 5.66492 5.71559C5.35516 6.24763 5.19238 6.85244 5.19326 7.46809C5.19326 8.67642 5.80826 9.74392 6.74326 10.3689C6.18993 10.3515 5.64878 10.2021 5.16492 9.93309V9.97642C5.16509 10.7812 5.44356 11.5611 5.95313 12.184C6.46269 12.8068 7.17199 13.2343 7.96075 13.3939C7.4471 13.5331 6.90851 13.5536 6.38576 13.4539C6.60814 14.1466 7.04159 14.7524 7.62541 15.1865C8.20924 15.6206 8.9142 15.8613 9.64159 15.8748C8.91866 16.4425 8.0909 16.8622 7.20566 17.1099C6.32041 17.3576 5.39503 17.4283 4.48242 17.3181C6.0755 18.3426 7.93 18.8865 9.82409 18.8848C16.2349 18.8848 19.7408 13.5739 19.7408 8.96809C19.7408 8.81809 19.7366 8.66642 19.7299 8.51809C20.4123 8.0249 21.0013 7.41394 21.4691 6.71392L21.4683 6.71309Z" fill="#006100"/>
</svg>
